<svg xmlns="http://www.w3.org/2000/svg" viewBox="0 0 64 64"><defs><style>.cls-1{fill:#000842;}.cls-2{fill:#f6ae2d;}.cls-3{fill:#fff;}</style></defs><g id="Ebene_1"><rect class="cls-1" width="64" height="64"/></g><g id="infinitescrolling"><path class="cls-2" d="M22.27,23.8l6-7v9.08a2.19,2.19,0,0,0,2.18,2.21h2.18a2.19,2.19,0,0,0,2.18-2.21V16.77l6,7a2.16,2.16,0,0,0,3.09,0l1.54-1.56a2.23,2.23,0,0,0,0-3.12L33,6.65a2.14,2.14,0,0,0-3.08,0L17.64,19.12a2.23,2.23,0,0,0,0,3.12l1.54,1.56a2.16,2.16,0,0,0,3.09,0Z"/><rect class="cls-3" x="31.26" y="32.91" width="1.48" height="44" rx="0.74" ry="0.74" transform="translate(-22.91 86.91) rotate(-90)"/><rect class="cls-2" x="28.27" y="30.06" width="6.51" height="9" rx="2" ry="2" transform="translate(63.05 69.12) rotate(-180)"/><rect class="cls-2" x="28.27" y="41.06" width="6.51" height="6" rx="2" ry="2" transform="translate(63.05 88.12) rotate(-180)"/><path class="cls-2" d="M30.27,49.06h2.51a2,2,0,0,1,2,2h0a2,2,0,0,1-2,2H30.27a2,2,0,0,1-2-2h0A2,2,0,0,1,30.27,49.06Z"/></g></svg>
